# xmcd CD database file
#
# Track frame offsets:
#	150
#	13414
#	27629
#	37006
#	44180
#	100339
#	123064
#	134050
#	145656
#	158671
#	169223
#	179977
#	194625
#	203967
#	208992
#	231294
#	241801
#	256699
#	270376
#	281325
#	293168
#	299896
#	309354
#	320634
#
# Disc length: 4378 seconds
#
# Revision: 1
# Processed by: cddbd v1.5.2PL0 Copyright (c) Steve Scherf et al.
# Submitted via: CDex 1.51
#
DISCID=88111818
DTITLE=Various Artist - Extraplatte - Extrajazz '96-97
DYEAR=1996
DGENRE=Jazz
TTITLE0=Uzzi Förster - Excerpt From Udrilitten
TTITLE1=Uzzi Förster - Crazy Rat
TTITLE2=Werner Pirchner - Epilog
TTITLE3=Werner Pirchner - Veatn Zu Ötschern Hobn A Poor Höttntöttn In An Öschttiröler Rökökö-Schlösse Röck'n Röll Getanzt
TTITLE4=Vienna Art Orchestra - Tango From Obango
TTITLE5=Open Art Band - Tropical Codes
TTITLE6=Nouvelle Cuisine - Drops
TTITLE7=Nouvelle Cuisine - Sunny Side Up
TTITLE8=Werner Raditschnig - Solo Der Dunklen Gestalt - Die Herrschsucht - Die Böse
TTITLE9=Werner Raditschnig - Solo Der Fröhlichen Gestalt - Das Opfer - Der Tölpel
TTITLE10=Striped Roses - Dongles
TTITLE11=Striped Roses - Springinkerl
TTITLE12=Berndt Luef Jazztett Forum Graz - Risp (Part I)
TTITLE13=Berndt Luef Jazztett Forum Graz - Risp (Part SP)
TTITLE14=The Quartet - Free Spirit
TTITLE15=Löschel, Skrepek Jr., Zost - Jobs and People
TTITLE16=Löschel, Skrepek Jr., Zost - Goldhammer
TTITLE17=MEZ World Dance Jazz - Caracol Del Mar
TTITLE18=MEZ World Dance Jazz - Tütün
TTITLE19=Art Recycling Factory - Maiwipferln
TTITLE20=Art Recycling Factory - P.M. Slight Return
TTITLE21=Franz Hauzinger Quartett - Plink Plonk
TTITLE22=Franz Hauzinger Quartett - His MAsters Admonishment
TTITLE23=Franz Hauzinger Quartett - Flap Jack
EXTD=YEAR: 1996
EXTT0=
EXTT1=
EXTT2=
EXTT3=
EXTT4=
EXTT5=
EXTT6=
EXTT7=
EXTT8=
EXTT9=
EXTT10=
EXTT11=
EXTT12=
EXTT13=
EXTT14=
EXTT15=
EXTT16=
EXTT17=
EXTT18=
EXTT19=
EXTT20=
EXTT21=
EXTT22=
EXTT23=
PLAYORDER=
